<svg width="16" height="17" viewBox="0 0 16 17" fill="none" xmlns="http://www.w3.org/2000/svg">
<path d="M8 0.5C10.1736 0.5 10.4448 0.508 11.2976 0.548C12.1496 0.588 12.7296 0.7216 13.24 0.92C13.768 1.1232 14.2128 1.3984 14.6576 1.8424C15.0644 2.24232 15.3792 2.72607 15.58 3.26C15.7776 3.7696 15.912 4.3504 15.952 5.2024C15.9896 6.0552 16 6.3264 16 8.5C16 10.6736 15.992 10.9448 15.952 11.7976C15.912 12.6496 15.7776 13.2296 15.58 13.74C15.3797 14.2742 15.0649 14.7581 14.6576 15.1576C14.2576 15.5643 13.7738 15.879 13.24 16.08C12.7304 16.2776 12.1496 16.412 11.2976 16.452C10.4448 16.4896 10.1736 16.5 8 16.5C5.8264 16.5 5.5552 16.492 4.7024 16.452C3.8504 16.412 3.2704 16.2776 2.76 16.08C2.22586 15.8796 1.74202 15.5648 1.3424 15.1576C0.935525 14.7577 0.620745 14.274 0.42 13.74C0.2216 13.2304 0.088 12.6496 0.048 11.7976C0.0104 10.9448 0 10.6736 0 8.5C0 6.3264 0.00799995 6.0552 0.048 5.2024C0.088 4.3496 0.2216 3.7704 0.42 3.26C0.620189 2.72574 0.935043 2.24186 1.3424 1.8424C1.74214 1.43538 2.22594 1.12058 2.76 0.92C3.2704 0.7216 3.8496 0.588 4.7024 0.548C5.5552 0.5104 5.8264 0.5 8 0.5ZM8 4.5C6.93913 4.5 5.92172 4.92143 5.17157 5.67157C4.42143 6.42172 4 7.43913 4 8.5C4 9.56087 4.42143 10.5783 5.17157 11.3284C5.92172 12.0786 6.93913 12.5 8 12.5C9.06087 12.5 10.0783 12.0786 10.8284 11.3284C11.5786 10.5783 12 9.56087 12 8.5C12 7.43913 11.5786 6.42172 10.8284 5.67157C10.0783 4.92143 9.06087 4.5 8 4.5ZM13.2 4.3C13.2 4.03478 13.0946 3.78043 12.9071 3.59289C12.7196 3.40536 12.4652 3.3 12.2 3.3C11.9348 3.3 11.6804 3.40536 11.4929 3.59289C11.3054 3.78043 11.2 4.03478 11.2 4.3C11.2 4.56522 11.3054 4.81957 11.4929 5.00711C11.6804 5.19464 11.9348 5.3 12.2 5.3C12.4652 5.3 12.7196 5.19464 12.9071 5.00711C13.0946 4.81957 13.2 4.56522 13.2 4.3ZM8 6.1C8.63652 6.1 9.24697 6.35286 9.69706 6.80294C10.1471 7.25303 10.4 7.86348 10.4 8.5C10.4 9.13652 10.1471 9.74697 9.69706 10.1971C9.24697 10.6471 8.63652 10.9 8 10.9C7.36348 10.9 6.75303 10.6471 6.30294 10.1971C5.85286 9.74697 5.6 9.13652 5.6 8.5C5.6 7.86348 5.85286 7.25303 6.30294 6.80294C6.75303 6.35286 7.36348 6.1 8 6.1Z" fill="black"/>
</svg>
