<svg width="18" height="17" viewBox="0 0 18 17" fill="none" xmlns="http://www.w3.org/2000/svg">
<path d="M4.08466 2.27857C4.08442 2.75004 3.8969 3.2021 3.56336 3.53532C3.22981 3.86853 2.77756 4.05559 2.30609 4.05536C1.83462 4.05512 1.38255 3.86761 1.04934 3.53406C0.716126 3.20051 0.529061 2.74826 0.529297 2.27679C0.529533 1.80532 0.717049 1.35325 1.0506 1.02004C1.38414 0.686829 1.8364 0.499764 2.30786 0.5C2.77933 0.500236 3.2314 0.687753 3.56461 1.0213C3.89783 1.35484 4.08489 1.8071 4.08466 2.27857ZM4.13799 5.37173H0.582627V16.5H4.13799V5.37173ZM9.75545 5.37173H6.21787V16.5H9.7199V10.6603C9.7199 7.40717 13.9597 7.10497 13.9597 10.6603V16.5H17.4706V9.4515C17.4706 3.96736 11.1954 4.1718 9.7199 6.86498L9.75545 5.37173Z" fill="black"/>
</svg>
