<svg width="417" height="407" fill="none" xmlns="http://www.w3.org/2000/svg"><g opacity=".2" fill="#fff"><path d="M99.278 406.306c-26.964 0-50.252-9.805-69.862-29.416C9.806 357.279 0 332.153 0 301.512c0-56.38 15.934-112.761 47.8-169.141C79.669 75.991 119.503 31.867 167.303 0l29.416 18.385c-47.8 46.575-80.28 109.696-97.44 189.364 26.965 0 50.252 9.805 69.863 29.416 19.61 19.61 29.416 42.898 29.416 69.862 0 28.191-9.806 52.091-29.416 71.701-18.385 18.385-41.673 27.578-69.863 27.578ZM317.096 406.306c-26.964 0-50.252-9.805-69.862-29.416-19.611-19.611-29.416-44.737-29.416-75.378 0-56.38 15.933-112.761 47.8-169.141C297.486 75.991 337.319 31.867 385.12 0l29.416 18.385c-47.801 46.575-80.281 109.696-97.44 189.364 26.965 0 50.252 9.805 69.863 29.416 19.61 19.61 29.415 42.898 29.415 69.862 0 28.191-9.805 52.091-29.415 71.701-18.385 18.385-41.673 27.578-69.863 27.578Z"/></g></svg>