<svg width="417" height="407" viewBox="0 0 417 407" fill="none" xmlns="http://www.w3.org/2000/svg">
    <g opacity="0.2">
    <path d="M99.2783 406.306C72.3138 406.306 49.0263 396.501 29.4158 376.89C9.80527 357.279 0 332.153 0 301.512C0 245.132 15.9336 188.751 47.8007 132.371C79.6678 75.9908 119.502 31.8671 167.302 0L196.718 18.3849C148.918 64.9599 116.438 128.081 99.2783 207.749C126.243 207.749 149.53 217.554 169.141 237.165C188.751 256.775 198.557 280.063 198.557 307.027C198.557 335.218 188.751 359.118 169.141 378.728C150.756 397.113 127.468 406.306 99.2783 406.306Z" fill="white"></path>
    <path d="M317.096 406.306C290.132 406.306 266.844 396.501 247.234 376.89C227.623 357.279 217.818 332.153 217.818 301.512C217.818 245.132 233.751 188.751 265.618 132.371C297.486 75.9908 337.319 31.8671 385.12 0L414.536 18.3849C366.735 64.9599 334.255 128.081 317.096 207.749C344.061 207.749 367.348 217.554 386.959 237.165C406.569 256.775 416.374 280.063 416.374 307.027C416.374 335.218 406.569 359.118 386.959 378.728C368.574 397.113 345.286 406.306 317.096 406.306Z" fill="white"></path>
    </g>
</svg>