<svg width="10" height="7" viewBox="0 0 10 7" fill="none" xmlns="http://www.w3.org/2000/svg">
<path d="M8.33768 0.220481C8.50827 0.0774997 8.73529 -0.00154604 8.97083 2.29171e-05C9.20637 0.00159187 9.432 0.0836531 9.60012 0.22889C9.76824 0.374128 9.8657 0.571181 9.87192 0.778471C9.87815 0.985761 9.79266 1.18707 9.63349 1.33993L4.80143 6.65997C4.71834 6.73875 4.61806 6.80198 4.50658 6.84587C4.3951 6.88975 4.27471 6.9134 4.15262 6.91539C4.03052 6.91738 3.90922 6.89767 3.79597 6.85745C3.68272 6.81723 3.57985 6.75731 3.49351 6.68129L0.289086 3.86028C0.199848 3.78708 0.128273 3.6988 0.07863 3.60072C0.0289869 3.50264 0.00229311 3.39675 0.000141353 3.28939C-0.00201041 3.18203 0.020424 3.07538 0.0661058 2.97582C0.111788 2.87625 0.179781 2.78581 0.26603 2.70988C0.352279 2.63395 0.455016 2.57409 0.568113 2.53387C0.68121 2.49366 0.80235 2.47391 0.924306 2.4758C1.04626 2.4777 1.16653 2.5012 1.27795 2.5449C1.38936 2.5886 1.48964 2.65161 1.57279 2.73017L4.10872 4.96161L8.31467 0.243936C8.32224 0.235728 8.33033 0.227897 8.33889 0.220481H8.33768Z" fill="#7F7ED0"/>
</svg>
