<svg width="44" height="43" viewBox="0 0 44 43" fill="none" xmlns="http://www.w3.org/2000/svg">
<path d="M17.0847 15.2786C17.0844 15.75 16.8969 16.2021 16.5634 16.5353C16.2298 16.8685 15.7776 17.0556 15.3061 17.0554C14.8346 17.0551 14.3826 16.8676 14.0493 16.5341C13.7161 16.2005 13.5291 15.7483 13.5293 15.2768C13.5295 14.8053 13.717 14.3533 14.0506 14.02C14.3841 13.6868 14.8364 13.4998 15.3079 13.5C15.7793 13.5002 16.2314 13.6878 16.5646 14.0213C16.8978 14.3548 17.0849 14.8071 17.0847 15.2786ZM17.138 18.3717H13.5826V29.5H17.138V18.3717ZM22.7555 18.3717H19.2179V29.5H22.7199V23.6603C22.7199 20.4072 26.9597 20.105 26.9597 23.6603V29.5H30.4706V22.4515C30.4706 16.9674 24.1954 17.1718 22.7199 19.865L22.7555 18.3717Z" fill="black"/>
<rect x="0.5" y="0.5" width="43" height="42" rx="21" stroke="#1A191D"/>
</svg>
