<svg width="403" height="80" viewBox="0 0 403 80" fill="none" xmlns="http://www.w3.org/2000/svg">
<path d="M45.728 44V33.44H49.488C50.736 33.44 51.648 33.7013 52.224 34.224C52.8 34.7467 53.088 35.456 53.088 36.352C53.088 36.8853 52.9333 37.3707 52.624 37.808C52.3147 38.2347 51.8773 38.5067 51.312 38.624V38.64C51.9413 38.7573 52.4373 39.0453 52.8 39.504C53.1733 39.952 53.36 40.464 53.36 41.04C53.36 41.936 53.024 42.656 52.352 43.2C51.68 43.7333 50.72 44 49.472 44H45.728ZM47.008 42.8H49.776C50.5333 42.8 51.0933 42.6453 51.456 42.336C51.8293 42.0267 52.016 41.5947 52.016 41.04C52.016 40.4747 51.8293 40.0427 51.456 39.744C51.0933 39.4347 50.5333 39.28 49.776 39.28H47.008V42.8ZM47.008 38.08H49.504C50.9973 38.08 51.744 37.504 51.744 36.352C51.744 35.2107 50.9973 34.64 49.504 34.64H47.008V38.08ZM58.8371 44.16C58.3251 44.16 57.8398 44.064 57.3811 43.872C56.9331 43.68 56.5651 43.3707 56.2771 42.944C55.9998 42.5067 55.8611 41.9413 55.8611 41.248V36H57.1411V40.912C57.1411 41.7227 57.3171 42.2827 57.6691 42.592C58.0211 42.8907 58.5171 43.04 59.1571 43.04C59.4558 43.04 59.7491 42.992 60.0371 42.896C60.3251 42.7893 60.5811 42.6293 60.8051 42.416C61.0398 42.192 61.2211 41.9093 61.3491 41.568C61.4878 41.2267 61.5571 40.8213 61.5571 40.352V36H62.8371V44H61.7171L61.6371 42.784C61.3598 43.264 60.9811 43.616 60.5011 43.84C60.0318 44.0533 59.4771 44.16 58.8371 44.16ZM67.7041 33.728V41.792C67.7041 42.1867 67.8161 42.48 68.0401 42.672C68.2641 42.864 68.5521 42.96 68.9041 42.96C69.2135 42.96 69.4801 42.9067 69.7041 42.8C69.9281 42.6933 70.1308 42.5493 70.3121 42.368L70.7601 43.44C70.5148 43.664 70.2215 43.84 69.8801 43.968C69.5495 44.096 69.1655 44.16 68.7281 44.16C68.3228 44.16 67.9441 44.0907 67.5921 43.952C67.2401 43.8027 66.9575 43.5733 66.7441 43.264C66.5415 42.944 66.4348 42.528 66.4241 42.016V34.08L67.7041 33.728ZM70.6161 36V37.104H64.8241V36H70.6161ZM73.376 33.728V41.792C73.376 42.1867 73.488 42.48 73.712 42.672C73.936 42.864 74.224 42.96 74.576 42.96C74.8853 42.96 75.152 42.9067 75.376 42.8C75.6 42.6933 75.8027 42.5493 75.984 42.368L76.432 43.44C76.1867 43.664 75.8933 43.84 75.552 43.968C75.2213 44.096 74.8373 44.16 74.4 44.16C73.9947 44.16 73.616 44.0907 73.264 43.952C72.912 43.8027 72.6293 43.5733 72.416 43.264C72.2133 42.944 72.1067 42.528 72.096 42.016V34.08L73.376 33.728ZM76.288 36V37.104H70.496V36H76.288ZM81.5031 35.84C82.2605 35.84 82.9271 36.0053 83.5031 36.336C84.0898 36.6667 84.5485 37.1467 84.8791 37.776C85.2098 38.3947 85.3751 39.136 85.3751 40C85.3751 40.864 85.2098 41.6107 84.8791 42.24C84.5485 42.8587 84.0898 43.3333 83.5031 43.664C82.9271 43.9947 82.2605 44.16 81.5031 44.16C80.7565 44.16 80.0898 43.9947 79.5031 43.664C78.9165 43.3333 78.4578 42.8587 78.1271 42.24C77.7965 41.6107 77.6311 40.864 77.6311 40C77.6311 39.136 77.7965 38.3947 78.1271 37.776C78.4578 37.1467 78.9165 36.6667 79.5031 36.336C80.0898 36.0053 80.7565 35.84 81.5031 35.84ZM81.5031 36.944C80.9591 36.944 80.4951 37.0667 80.1111 37.312C79.7271 37.5573 79.4285 37.9093 79.2151 38.368C79.0125 38.816 78.9111 39.36 78.9111 40C78.9111 40.6293 79.0125 41.1733 79.2151 41.632C79.4285 42.0907 79.7271 42.4427 80.1111 42.688C80.4951 42.9333 80.9591 43.056 81.5031 43.056C82.0471 43.056 82.5111 42.9333 82.8951 42.688C83.2791 42.4427 83.5725 42.0907 83.7751 41.632C83.9885 41.1733 84.0951 40.6293 84.0951 40C84.0951 39.36 83.9885 38.816 83.7751 38.368C83.5725 37.9093 83.2791 37.5573 82.8951 37.312C82.5111 37.0667 82.0471 36.944 81.5031 36.944ZM87.7849 44V36H88.9049L89.0169 37.792L88.8089 37.616C88.9795 37.1893 89.2089 36.848 89.4969 36.592C89.7849 36.3253 90.1155 36.1333 90.4889 36.016C90.8729 35.8987 91.2675 35.84 91.6729 35.84C92.2489 35.84 92.7715 35.952 93.2409 36.176C93.7102 36.3893 94.0835 36.72 94.3609 37.168C94.6489 37.616 94.7929 38.1867 94.7929 38.88V44H93.5129V39.328C93.5129 38.4427 93.3209 37.8293 92.9369 37.488C92.5635 37.136 92.0995 36.96 91.5449 36.96C91.1609 36.96 90.7769 37.0507 90.3929 37.232C90.0089 37.4133 89.6889 37.7067 89.4329 38.112C89.1875 38.5173 89.0649 39.0613 89.0649 39.744V44H87.7849ZM104.664 42.8H110.712V44H103.384V33.44H104.664V42.8ZM117.379 38.832C117.379 38.2347 117.219 37.776 116.899 37.456C116.579 37.1253 116.125 36.96 115.539 36.96C114.984 36.96 114.515 37.0827 114.131 37.328C113.747 37.5627 113.464 37.9467 113.283 38.48L112.243 37.84C112.456 37.2427 112.851 36.7627 113.427 36.4C114.003 36.0267 114.717 35.84 115.571 35.84C116.147 35.84 116.669 35.9413 117.139 36.144C117.608 36.336 117.976 36.6347 118.243 37.04C118.52 37.4347 118.659 37.9467 118.659 38.576V42.448C118.659 42.832 118.861 43.024 119.267 43.024C119.469 43.024 119.667 42.9973 119.859 42.944L119.795 43.952C119.581 44.0587 119.304 44.112 118.963 44.112C118.653 44.112 118.376 44.0533 118.131 43.936C117.885 43.8187 117.693 43.6427 117.555 43.408C117.416 43.1627 117.347 42.8587 117.347 42.496V42.336L117.667 42.384C117.539 42.8 117.32 43.1413 117.011 43.408C116.701 43.664 116.355 43.856 115.971 43.984C115.587 44.1013 115.208 44.16 114.835 44.16C114.365 44.16 113.928 44.08 113.523 43.92C113.117 43.76 112.792 43.52 112.547 43.2C112.312 42.8693 112.195 42.464 112.195 41.984C112.195 41.3867 112.392 40.896 112.787 40.512C113.192 40.1173 113.752 39.8507 114.467 39.712L117.635 39.088V40.144L115.059 40.672C114.536 40.7787 114.147 40.928 113.891 41.12C113.635 41.312 113.507 41.5787 113.507 41.92C113.507 42.2507 113.635 42.5227 113.891 42.736C114.157 42.9387 114.531 43.04 115.011 43.04C115.32 43.04 115.613 43.0027 115.891 42.928C116.179 42.8427 116.435 42.72 116.659 42.56C116.883 42.3893 117.059 42.1813 117.187 41.936C117.315 41.68 117.379 41.3813 117.379 41.04V38.832ZM125.689 44.16C125.241 44.16 124.825 44.08 124.441 43.92C124.057 43.76 123.727 43.536 123.449 43.248C123.172 42.96 122.964 42.6347 122.825 42.272L123.001 42.048L122.889 44H121.769V32.32H123.049V37.808L122.889 37.568C123.103 37.0667 123.46 36.656 123.961 36.336C124.473 36.0053 125.055 35.84 125.705 35.84C126.367 35.84 126.975 36.0053 127.529 36.336C128.084 36.6667 128.527 37.1413 128.857 37.76C129.188 38.3787 129.353 39.1253 129.353 40C129.353 40.864 129.183 41.6107 128.841 42.24C128.511 42.8587 128.068 43.3333 127.513 43.664C126.959 43.9947 126.351 44.16 125.689 44.16ZM125.561 43.04C126.351 43.04 126.964 42.7627 127.401 42.208C127.849 41.6533 128.073 40.9173 128.073 40C128.073 39.0827 127.855 38.3467 127.417 37.792C126.98 37.2373 126.367 36.96 125.577 36.96C125.076 36.96 124.633 37.088 124.249 37.344C123.876 37.6 123.583 37.9573 123.369 38.416C123.156 38.8747 123.049 39.4133 123.049 40.032C123.049 40.64 123.151 41.1733 123.353 41.632C123.567 42.08 123.86 42.4267 124.233 42.672C124.617 42.9173 125.06 43.04 125.561 43.04ZM135.145 44.16C134.387 44.16 133.71 43.9947 133.113 43.664C132.526 43.3333 132.067 42.8587 131.737 42.24C131.406 41.6107 131.241 40.864 131.241 40C131.241 39.136 131.406 38.3947 131.737 37.776C132.067 37.1467 132.521 36.6667 133.097 36.336C133.673 36.0053 134.329 35.84 135.065 35.84C135.811 35.84 136.446 36 136.969 36.32C137.502 36.64 137.907 37.0773 138.185 37.632C138.462 38.176 138.601 38.7893 138.601 39.472C138.601 39.6533 138.595 39.8187 138.585 39.968C138.574 40.1173 138.558 40.2507 138.536 40.368H132.073V39.232H137.977L137.321 39.36C137.321 38.592 137.107 38 136.681 37.584C136.265 37.168 135.715 36.96 135.033 36.96C134.51 36.96 134.057 37.0827 133.673 37.328C133.299 37.5627 133.006 37.9093 132.793 38.368C132.59 38.816 132.489 39.36 132.489 40C132.489 40.6293 132.595 41.1733 132.809 41.632C133.022 42.0907 133.321 42.4427 133.705 42.688C134.099 42.9227 134.569 43.04 135.113 43.04C135.699 43.04 136.174 42.928 136.537 42.704C136.91 42.48 137.209 42.176 137.433 41.792L138.441 42.384C138.238 42.7467 137.977 43.0613 137.657 43.328C137.347 43.5947 136.979 43.8027 136.553 43.952C136.137 44.0907 135.667 44.16 135.145 44.16ZM142.251 32.32V41.968C142.251 42.3733 142.326 42.656 142.475 42.816C142.624 42.9653 142.864 43.04 143.195 43.04C143.408 43.04 143.584 43.024 143.723 42.992C143.862 42.96 144.048 42.9013 144.283 42.816L144.075 43.936C143.904 44.0107 143.718 44.064 143.515 44.096C143.312 44.1387 143.104 44.16 142.891 44.16C142.24 44.16 141.755 43.984 141.435 43.632C141.126 43.28 140.971 42.7413 140.971 42.016V32.32H142.251Z" fill="#1A191D"/>
<rect x="20.5" y="20.5" width="148" height="37" stroke="#1A191D"/>
<rect width="149" height="38" transform="translate(221 20)" fill="#1A191D"/>
<path d="M246.728 44V33.44H250.488C251.736 33.44 252.648 33.7013 253.224 34.224C253.8 34.7467 254.088 35.456 254.088 36.352C254.088 36.8853 253.933 37.3707 253.624 37.808C253.315 38.2347 252.877 38.5067 252.312 38.624V38.64C252.941 38.7573 253.437 39.0453 253.8 39.504C254.173 39.952 254.36 40.464 254.36 41.04C254.36 41.936 254.024 42.656 253.352 43.2C252.68 43.7333 251.72 44 250.472 44H246.728ZM248.008 42.8H250.776C251.533 42.8 252.093 42.6453 252.456 42.336C252.829 42.0267 253.016 41.5947 253.016 41.04C253.016 40.4747 252.829 40.0427 252.456 39.744C252.093 39.4347 251.533 39.28 250.776 39.28H248.008V42.8ZM248.008 38.08H250.504C251.997 38.08 252.744 37.504 252.744 36.352C252.744 35.2107 251.997 34.64 250.504 34.64H248.008V38.08ZM259.837 44.16C259.325 44.16 258.84 44.064 258.381 43.872C257.933 43.68 257.565 43.3707 257.277 42.944C257 42.5067 256.861 41.9413 256.861 41.248V36H258.141V40.912C258.141 41.7227 258.317 42.2827 258.669 42.592C259.021 42.8907 259.517 43.04 260.157 43.04C260.456 43.04 260.749 42.992 261.037 42.896C261.325 42.7893 261.581 42.6293 261.805 42.416C262.04 42.192 262.221 41.9093 262.349 41.568C262.488 41.2267 262.557 40.8213 262.557 40.352V36H263.837V44H262.717L262.637 42.784C262.36 43.264 261.981 43.616 261.501 43.84C261.032 44.0533 260.477 44.16 259.837 44.16ZM268.704 33.728V41.792C268.704 42.1867 268.816 42.48 269.04 42.672C269.264 42.864 269.552 42.96 269.904 42.96C270.213 42.96 270.48 42.9067 270.704 42.8C270.928 42.6933 271.131 42.5493 271.312 42.368L271.76 43.44C271.515 43.664 271.221 43.84 270.88 43.968C270.549 44.096 270.165 44.16 269.728 44.16C269.323 44.16 268.944 44.0907 268.592 43.952C268.24 43.8027 267.957 43.5733 267.744 43.264C267.541 42.944 267.435 42.528 267.424 42.016V34.08L268.704 33.728ZM271.616 36V37.104H265.824V36H271.616ZM274.376 33.728V41.792C274.376 42.1867 274.488 42.48 274.712 42.672C274.936 42.864 275.224 42.96 275.576 42.96C275.885 42.96 276.152 42.9067 276.376 42.8C276.6 42.6933 276.803 42.5493 276.984 42.368L277.432 43.44C277.187 43.664 276.893 43.84 276.552 43.968C276.221 44.096 275.837 44.16 275.4 44.16C274.995 44.16 274.616 44.0907 274.264 43.952C273.912 43.8027 273.629 43.5733 273.416 43.264C273.213 42.944 273.107 42.528 273.096 42.016V34.08L274.376 33.728ZM277.288 36V37.104H271.496V36H277.288ZM282.503 35.84C283.26 35.84 283.927 36.0053 284.503 36.336C285.09 36.6667 285.548 37.1467 285.879 37.776C286.21 38.3947 286.375 39.136 286.375 40C286.375 40.864 286.21 41.6107 285.879 42.24C285.548 42.8587 285.09 43.3333 284.503 43.664C283.927 43.9947 283.26 44.16 282.503 44.16C281.756 44.16 281.09 43.9947 280.503 43.664C279.916 43.3333 279.458 42.8587 279.127 42.24C278.796 41.6107 278.631 40.864 278.631 40C278.631 39.136 278.796 38.3947 279.127 37.776C279.458 37.1467 279.916 36.6667 280.503 36.336C281.09 36.0053 281.756 35.84 282.503 35.84ZM282.503 36.944C281.959 36.944 281.495 37.0667 281.111 37.312C280.727 37.5573 280.428 37.9093 280.215 38.368C280.012 38.816 279.911 39.36 279.911 40C279.911 40.6293 280.012 41.1733 280.215 41.632C280.428 42.0907 280.727 42.4427 281.111 42.688C281.495 42.9333 281.959 43.056 282.503 43.056C283.047 43.056 283.511 42.9333 283.895 42.688C284.279 42.4427 284.572 42.0907 284.775 41.632C284.988 41.1733 285.095 40.6293 285.095 40C285.095 39.36 284.988 38.816 284.775 38.368C284.572 37.9093 284.279 37.5573 283.895 37.312C283.511 37.0667 283.047 36.944 282.503 36.944ZM288.785 44V36H289.905L290.017 37.792L289.809 37.616C289.98 37.1893 290.209 36.848 290.497 36.592C290.785 36.3253 291.116 36.1333 291.489 36.016C291.873 35.8987 292.268 35.84 292.673 35.84C293.249 35.84 293.772 35.952 294.241 36.176C294.71 36.3893 295.084 36.72 295.361 37.168C295.649 37.616 295.793 38.1867 295.793 38.88V44H294.513V39.328C294.513 38.4427 294.321 37.8293 293.937 37.488C293.564 37.136 293.1 36.96 292.545 36.96C292.161 36.96 291.777 37.0507 291.393 37.232C291.009 37.4133 290.689 37.7067 290.433 38.112C290.188 38.5173 290.065 39.0613 290.065 39.744V44H288.785ZM305.664 42.8H311.712V44H304.384V33.44H305.664V42.8ZM318.379 38.832C318.379 38.2347 318.219 37.776 317.899 37.456C317.579 37.1253 317.125 36.96 316.539 36.96C315.984 36.96 315.515 37.0827 315.131 37.328C314.747 37.5627 314.464 37.9467 314.283 38.48L313.243 37.84C313.456 37.2427 313.851 36.7627 314.427 36.4C315.003 36.0267 315.717 35.84 316.571 35.84C317.147 35.84 317.669 35.9413 318.139 36.144C318.608 36.336 318.976 36.6347 319.243 37.04C319.52 37.4347 319.659 37.9467 319.659 38.576V42.448C319.659 42.832 319.861 43.024 320.267 43.024C320.469 43.024 320.667 42.9973 320.859 42.944L320.795 43.952C320.581 44.0587 320.304 44.112 319.963 44.112C319.653 44.112 319.376 44.0533 319.131 43.936C318.885 43.8187 318.693 43.6427 318.555 43.408C318.416 43.1627 318.347 42.8587 318.347 42.496V42.336L318.667 42.384C318.539 42.8 318.32 43.1413 318.011 43.408C317.701 43.664 317.355 43.856 316.971 43.984C316.587 44.1013 316.208 44.16 315.835 44.16C315.365 44.16 314.928 44.08 314.523 43.92C314.117 43.76 313.792 43.52 313.547 43.2C313.312 42.8693 313.195 42.464 313.195 41.984C313.195 41.3867 313.392 40.896 313.787 40.512C314.192 40.1173 314.752 39.8507 315.467 39.712L318.635 39.088V40.144L316.059 40.672C315.536 40.7787 315.147 40.928 314.891 41.12C314.635 41.312 314.507 41.5787 314.507 41.92C314.507 42.2507 314.635 42.5227 314.891 42.736C315.157 42.9387 315.531 43.04 316.011 43.04C316.32 43.04 316.613 43.0027 316.891 42.928C317.179 42.8427 317.435 42.72 317.659 42.56C317.883 42.3893 318.059 42.1813 318.187 41.936C318.315 41.68 318.379 41.3813 318.379 41.04V38.832ZM326.689 44.16C326.241 44.16 325.825 44.08 325.441 43.92C325.057 43.76 324.727 43.536 324.449 43.248C324.172 42.96 323.964 42.6347 323.825 42.272L324.001 42.048L323.889 44H322.769V32.32H324.049V37.808L323.889 37.568C324.103 37.0667 324.46 36.656 324.961 36.336C325.473 36.0053 326.055 35.84 326.705 35.84C327.367 35.84 327.975 36.0053 328.529 36.336C329.084 36.6667 329.527 37.1413 329.857 37.76C330.188 38.3787 330.353 39.1253 330.353 40C330.353 40.864 330.183 41.6107 329.841 42.24C329.511 42.8587 329.068 43.3333 328.513 43.664C327.959 43.9947 327.351 44.16 326.689 44.16ZM326.561 43.04C327.351 43.04 327.964 42.7627 328.401 42.208C328.849 41.6533 329.073 40.9173 329.073 40C329.073 39.0827 328.855 38.3467 328.417 37.792C327.98 37.2373 327.367 36.96 326.577 36.96C326.076 36.96 325.633 37.088 325.249 37.344C324.876 37.6 324.583 37.9573 324.369 38.416C324.156 38.8747 324.049 39.4133 324.049 40.032C324.049 40.64 324.151 41.1733 324.353 41.632C324.567 42.08 324.86 42.4267 325.233 42.672C325.617 42.9173 326.06 43.04 326.561 43.04ZM336.145 44.16C335.387 44.16 334.71 43.9947 334.113 43.664C333.526 43.3333 333.067 42.8587 332.737 42.24C332.406 41.6107 332.241 40.864 332.241 40C332.241 39.136 332.406 38.3947 332.737 37.776C333.067 37.1467 333.521 36.6667 334.097 36.336C334.673 36.0053 335.329 35.84 336.065 35.84C336.811 35.84 337.446 36 337.969 36.32C338.502 36.64 338.907 37.0773 339.185 37.632C339.462 38.176 339.601 38.7893 339.601 39.472C339.601 39.6533 339.595 39.8187 339.585 39.968C339.574 40.1173 339.558 40.2507 339.536 40.368H333.073V39.232H338.977L338.321 39.36C338.321 38.592 338.107 38 337.681 37.584C337.265 37.168 336.715 36.96 336.033 36.96C335.51 36.96 335.057 37.0827 334.673 37.328C334.299 37.5627 334.006 37.9093 333.793 38.368C333.59 38.816 333.489 39.36 333.489 40C333.489 40.6293 333.595 41.1733 333.809 41.632C334.022 42.0907 334.321 42.4427 334.705 42.688C335.099 42.9227 335.569 43.04 336.113 43.04C336.699 43.04 337.174 42.928 337.537 42.704C337.91 42.48 338.209 42.176 338.433 41.792L339.441 42.384C339.238 42.7467 338.977 43.0613 338.657 43.328C338.347 43.5947 337.979 43.8027 337.553 43.952C337.137 44.0907 336.667 44.16 336.145 44.16ZM343.251 32.32V41.968C343.251 42.3733 343.326 42.656 343.475 42.816C343.624 42.9653 343.864 43.04 344.195 43.04C344.408 43.04 344.584 43.024 344.723 42.992C344.862 42.96 345.048 42.9013 345.283 42.816L345.075 43.936C344.904 44.0107 344.718 44.064 344.515 44.096C344.312 44.1387 344.104 44.16 343.891 44.16C343.24 44.16 342.755 43.984 342.435 43.632C342.126 43.28 341.971 42.7413 341.971 42.016V32.32H343.251Z" fill="white"/>
<rect x="0.5" y="0.5" width="402" height="79" rx="4.5" stroke="#9747FF" stroke-dasharray="10 5"/>
</svg>
