<svg width="403" height="80" viewBox="0 0 403 80" fill="none" xmlns="http://www.w3.org/2000/svg">
<path d="M45.728 44V33.44H49.488C50.736 33.44 51.648 33.7013 52.224 34.224C52.8 34.7467 53.088 35.456 53.088 36.352C53.088 36.8853 52.9333 37.3707 52.624 37.808C52.3147 38.2347 51.8773 38.5067 51.312 38.624V38.64C51.9413 38.7573 52.4373 39.0453 52.8 39.504C53.1733 39.952 53.36 40.464 53.36 41.04C53.36 41.936 53.024 42.656 52.352 43.2C51.68 43.7333 50.72 44 49.472 44H45.728ZM47.008 42.8H49.776C50.5333 42.8 51.0933 42.6453 51.456 42.336C51.8293 42.0267 52.016 41.5947 52.016 41.04C52.016 40.4747 51.8293 40.0427 51.456 39.744C51.0933 39.4347 50.5333 39.28 49.776 39.28H47.008V42.8ZM47.008 38.08H49.504C50.9973 38.08 51.744 37.504 51.744 36.352C51.744 35.2107 50.9973 34.64 49.504 34.64H47.008V38.08ZM58.8371 44.16C58.3251 44.16 57.8398 44.064 57.3811 43.872C56.9331 43.68 56.5651 43.3707 56.2771 42.944C55.9998 42.5067 55.8611 41.9413 55.8611 41.248V36H57.1411V40.912C57.1411 41.7227 57.3171 42.2827 57.6691 42.592C58.0211 42.8907 58.5171 43.04 59.1571 43.04C59.4558 43.04 59.7491 42.992 60.0371 42.896C60.3251 42.7893 60.5811 42.6293 60.8051 42.416C61.0398 42.192 61.2211 41.9093 61.3491 41.568C61.4878 41.2267 61.5571 40.8213 61.5571 40.352V36H62.8371V44H61.7171L61.6371 42.784C61.3598 43.264 60.9811 43.616 60.5011 43.84C60.0318 44.0533 59.4771 44.16 58.8371 44.16ZM67.7041 33.728V41.792C67.7041 42.1867 67.8161 42.48 68.0401 42.672C68.2641 42.864 68.5521 42.96 68.9041 42.96C69.2135 42.96 69.4801 42.9067 69.7041 42.8C69.9281 42.6933 70.1308 42.5493 70.3121 42.368L70.7601 43.44C70.5148 43.664 70.2215 43.84 69.8801 43.968C69.5495 44.096 69.1655 44.16 68.7281 44.16C68.3228 44.16 67.9441 44.0907 67.5921 43.952C67.2401 43.8027 66.9575 43.5733 66.7441 43.264C66.5415 42.944 66.4348 42.528 66.4241 42.016V34.08L67.7041 33.728ZM70.6161 36V37.104H64.8241V36H70.6161ZM73.376 33.728V41.792C73.376 42.1867 73.488 42.48 73.712 42.672C73.936 42.864 74.224 42.96 74.576 42.96C74.8853 42.96 75.152 42.9067 75.376 42.8C75.6 42.6933 75.8027 42.5493 75.984 42.368L76.432 43.44C76.1867 43.664 75.8933 43.84 75.552 43.968C75.2213 44.096 74.8373 44.16 74.4 44.16C73.9947 44.16 73.616 44.0907 73.264 43.952C72.912 43.8027 72.6293 43.5733 72.416 43.264C72.2133 42.944 72.1067 42.528 72.096 42.016V34.08L73.376 33.728ZM76.288 36V37.104H70.496V36H76.288ZM81.5031 35.84C82.2605 35.84 82.9271 36.0053 83.5031 36.336C84.0898 36.6667 84.5485 37.1467 84.8791 37.776C85.2098 38.3947 85.3751 39.136 85.3751 40C85.3751 40.864 85.2098 41.6107 84.8791 42.24C84.5485 42.8587 84.0898 43.3333 83.5031 43.664C82.9271 43.9947 82.2605 44.16 81.5031 44.16C80.7565 44.16 80.0898 43.9947 79.5031 43.664C78.9165 43.3333 78.4578 42.8587 78.1271 42.24C77.7965 41.6107 77.6311 40.864 77.6311 40C77.6311 39.136 77.7965 38.3947 78.1271 37.776C78.4578 37.1467 78.9165 36.6667 79.5031 36.336C80.0898 36.0053 80.7565 35.84 81.5031 35.84ZM81.5031 36.944C80.9591 36.944 80.4951 37.0667 80.1111 37.312C79.7271 37.5573 79.4285 37.9093 79.2151 38.368C79.0125 38.816 78.9111 39.36 78.9111 40C78.9111 40.6293 79.0125 41.1733 79.2151 41.632C79.4285 42.0907 79.7271 42.4427 80.1111 42.688C80.4951 42.9333 80.9591 43.056 81.5031 43.056C82.0471 43.056 82.5111 42.9333 82.8951 42.688C83.2791 42.4427 83.5725 42.0907 83.7751 41.632C83.9885 41.1733 84.0951 40.6293 84.0951 40C84.0951 39.36 83.9885 38.816 83.7751 38.368C83.5725 37.9093 83.2791 37.5573 82.8951 37.312C82.5111 37.0667 82.0471 36.944 81.5031 36.944ZM87.7849 44V36H88.9049L89.0169 37.792L88.8089 37.616C88.9795 37.1893 89.2089 36.848 89.4969 36.592C89.7849 36.3253 90.1155 36.1333 90.4889 36.016C90.8729 35.8987 91.2675 35.84 91.6729 35.84C92.2489 35.84 92.7715 35.952 93.2409 36.176C93.7102 36.3893 94.0835 36.72 94.3609 37.168C94.6489 37.616 94.7929 38.1867 94.7929 38.88V44H93.5129V39.328C93.5129 38.4427 93.3209 37.8293 92.9369 37.488C92.5635 37.136 92.0995 36.96 91.5449 36.96C91.1609 36.96 90.7769 37.0507 90.3929 37.232C90.0089 37.4133 89.6889 37.7067 89.4329 38.112C89.1875 38.5173 89.0649 39.0613 89.0649 39.744V44H87.7849ZM104.664 42.8H110.712V44H103.384V33.44H104.664V42.8ZM117.379 38.832C117.379 38.2347 117.219 37.776 116.899 37.456C116.579 37.1253 116.125 36.96 115.539 36.96C114.984 36.96 114.515 37.0827 114.131 37.328C113.747 37.5627 113.464 37.9467 113.283 38.48L112.243 37.84C112.456 37.2427 112.851 36.7627 113.427 36.4C114.003 36.0267 114.717 35.84 115.571 35.84C116.147 35.84 116.669 35.9413 117.139 36.144C117.608 36.336 117.976 36.6347 118.243 37.04C118.52 37.4347 118.659 37.9467 118.659 38.576V42.448C118.659 42.832 118.861 43.024 119.267 43.024C119.469 43.024 119.667 42.9973 119.859 42.944L119.795 43.952C119.581 44.0587 119.304 44.112 118.963 44.112C118.653 44.112 118.376 44.0533 118.131 43.936C117.885 43.8187 117.693 43.6427 117.555 43.408C117.416 43.1627 117.347 42.8587 117.347 42.496V42.336L117.667 42.384C117.539 42.8 117.32 43.1413 117.011 43.408C116.701 43.664 116.355 43.856 115.971 43.984C115.587 44.1013 115.208 44.16 114.835 44.16C114.365 44.16 113.928 44.08 113.523 43.92C113.117 43.76 112.792 43.52 112.547 43.2C112.312 42.8693 112.195 42.464 112.195 41.984C112.195 41.3867 112.392 40.896 112.787 40.512C113.192 40.1173 113.752 39.8507 114.467 39.712L117.635 39.088V40.144L115.059 40.672C114.536 40.7787 114.147 40.928 113.891 41.12C113.635 41.312 113.507 41.5787 113.507 41.92C113.507 42.2507 113.635 42.5227 113.891 42.736C114.157 42.9387 114.531 43.04 115.011 43.04C115.32 43.04 115.613 43.0027 115.891 42.928C116.179 42.8427 116.435 42.72 116.659 42.56C116.883 42.3893 117.059 42.1813 117.187 41.936C117.315 41.68 117.379 41.3813 117.379 41.04V38.832ZM125.689 44.16C125.241 44.16 124.825 44.08 124.441 43.92C124.057 43.76 123.727 43.536 123.449 43.248C123.172 42.96 122.964 42.6347 122.825 42.272L123.001 42.048L122.889 44H121.769V32.32H123.049V37.808L122.889 37.568C123.103 37.0667 123.46 36.656 123.961 36.336C124.473 36.0053 125.055 35.84 125.705 35.84C126.367 35.84 126.975 36.0053 127.529 36.336C128.084 36.6667 128.527 37.1413 128.857 37.76C129.188 38.3787 129.353 39.1253 129.353 40C129.353 40.864 129.183 41.6107 128.841 42.24C128.511 42.8587 128.068 43.3333 127.513 43.664C126.959 43.9947 126.351 44.16 125.689 44.16ZM125.561 43.04C126.351 43.04 126.964 42.7627 127.401 42.208C127.849 41.6533 128.073 40.9173 128.073 40C128.073 39.0827 127.855 38.3467 127.417 37.792C126.98 37.2373 126.367 36.96 125.577 36.96C125.076 36.96 124.633 37.088 124.249 37.344C123.876 37.6 123.583 37.9573 123.369 38.416C123.156 38.8747 123.049 39.4133 123.049 40.032C123.049 40.64 123.151 41.1733 123.353 41.632C123.567 42.08 123.86 42.4267 124.233 42.672C124.617 42.9173 125.06 43.04 125.561 43.04ZM135.145 44.16C134.387 44.16 133.71 43.9947 133.113 43.664C132.526 43.3333 132.067 42.8587 131.737 42.24C131.406 41.6107 131.241 40.864 131.241 40C131.241 39.136 131.406 38.3947 131.737 37.776C132.067 37.1467 132.521 36.6667 133.097 36.336C133.673 36.0053 134.329 35.84 135.065 35.84C135.811 35.84 136.446 36 136.969 36.32C137.502 36.64 137.907 37.0773 138.185 37.632C138.462 38.176 138.601 38.7893 138.601 39.472C138.601 39.6533 138.595 39.8187 138.585 39.968C138.574 40.1173 138.558 40.2507 138.536 40.368H132.073V39.232H137.977L137.321 39.36C137.321 38.592 137.107 38 136.681 37.584C136.265 37.168 135.715 36.96 135.033 36.96C134.51 36.96 134.057 37.0827 133.673 37.328C133.299 37.5627 133.006 37.9093 132.793 38.368C132.59 38.816 132.489 39.36 132.489 40C132.489 40.6293 132.595 41.1733 132.809 41.632C133.022 42.0907 133.321 42.4427 133.705 42.688C134.099 42.9227 134.569 43.04 135.113 43.04C135.699 43.04 136.174 42.928 136.537 42.704C136.91 42.48 137.209 42.176 137.433 41.792L138.441 42.384C138.238 42.7467 137.977 43.0613 137.657 43.328C137.347 43.5947 136.979 43.8027 136.553 43.952C136.137 44.0907 135.667 44.16 135.145 44.16ZM142.251 32.32V41.968C142.251 42.3733 142.326 42.656 142.475 42.816C142.624 42.9653 142.864 43.04 143.195 43.04C143.408 43.04 143.584 43.024 143.723 42.992C143.862 42.96 144.048 42.9013 144.283 42.816L144.075 43.936C143.904 44.0107 143.718 44.064 143.515 44.096C143.312 44.1387 143.104 44.16 142.891 44.16C142.24 44.16 141.755 43.984 141.435 43.632C141.126 43.28 140.971 42.7413 140.971 42.016V32.32H142.251Z" fill="#1A191D"/>
<rect x="20.5" y="20.5" width="148" height="37" rx="18.5" stroke="#1A191D"/>
<path d="M246.228 44V33.44H249.988C251.236 33.44 252.148 33.7013 252.724 34.224C253.3 34.7467 253.588 35.456 253.588 36.352C253.588 36.8853 253.433 37.3707 253.124 37.808C252.815 38.2347 252.377 38.5067 251.812 38.624V38.64C252.441 38.7573 252.937 39.0453 253.3 39.504C253.673 39.952 253.86 40.464 253.86 41.04C253.86 41.936 253.524 42.656 252.852 43.2C252.18 43.7333 251.22 44 249.972 44H246.228ZM247.508 42.8H250.276C251.033 42.8 251.593 42.6453 251.956 42.336C252.329 42.0267 252.516 41.5947 252.516 41.04C252.516 40.4747 252.329 40.0427 251.956 39.744C251.593 39.4347 251.033 39.28 250.276 39.28H247.508V42.8ZM247.508 38.08H250.004C251.497 38.08 252.244 37.504 252.244 36.352C252.244 35.2107 251.497 34.64 250.004 34.64H247.508V38.08ZM259.337 44.16C258.825 44.16 258.34 44.064 257.881 43.872C257.433 43.68 257.065 43.3707 256.777 42.944C256.5 42.5067 256.361 41.9413 256.361 41.248V36H257.641V40.912C257.641 41.7227 257.817 42.2827 258.169 42.592C258.521 42.8907 259.017 43.04 259.657 43.04C259.956 43.04 260.249 42.992 260.537 42.896C260.825 42.7893 261.081 42.6293 261.305 42.416C261.54 42.192 261.721 41.9093 261.849 41.568C261.988 41.2267 262.057 40.8213 262.057 40.352V36H263.337V44H262.217L262.137 42.784C261.86 43.264 261.481 43.616 261.001 43.84C260.532 44.0533 259.977 44.16 259.337 44.16ZM268.204 33.728V41.792C268.204 42.1867 268.316 42.48 268.54 42.672C268.764 42.864 269.052 42.96 269.404 42.96C269.713 42.96 269.98 42.9067 270.204 42.8C270.428 42.6933 270.631 42.5493 270.812 42.368L271.26 43.44C271.015 43.664 270.721 43.84 270.38 43.968C270.049 44.096 269.665 44.16 269.228 44.16C268.823 44.16 268.444 44.0907 268.092 43.952C267.74 43.8027 267.457 43.5733 267.244 43.264C267.041 42.944 266.935 42.528 266.924 42.016V34.08L268.204 33.728ZM271.116 36V37.104H265.324V36H271.116ZM273.876 33.728V41.792C273.876 42.1867 273.988 42.48 274.212 42.672C274.436 42.864 274.724 42.96 275.076 42.96C275.385 42.96 275.652 42.9067 275.876 42.8C276.1 42.6933 276.303 42.5493 276.484 42.368L276.932 43.44C276.687 43.664 276.393 43.84 276.052 43.968C275.721 44.096 275.337 44.16 274.9 44.16C274.495 44.16 274.116 44.0907 273.764 43.952C273.412 43.8027 273.129 43.5733 272.916 43.264C272.713 42.944 272.607 42.528 272.596 42.016V34.08L273.876 33.728ZM276.788 36V37.104H270.996V36H276.788ZM282.003 35.84C282.76 35.84 283.427 36.0053 284.003 36.336C284.59 36.6667 285.048 37.1467 285.379 37.776C285.71 38.3947 285.875 39.136 285.875 40C285.875 40.864 285.71 41.6107 285.379 42.24C285.048 42.8587 284.59 43.3333 284.003 43.664C283.427 43.9947 282.76 44.16 282.003 44.16C281.256 44.16 280.59 43.9947 280.003 43.664C279.416 43.3333 278.958 42.8587 278.627 42.24C278.296 41.6107 278.131 40.864 278.131 40C278.131 39.136 278.296 38.3947 278.627 37.776C278.958 37.1467 279.416 36.6667 280.003 36.336C280.59 36.0053 281.256 35.84 282.003 35.84ZM282.003 36.944C281.459 36.944 280.995 37.0667 280.611 37.312C280.227 37.5573 279.928 37.9093 279.715 38.368C279.512 38.816 279.411 39.36 279.411 40C279.411 40.6293 279.512 41.1733 279.715 41.632C279.928 42.0907 280.227 42.4427 280.611 42.688C280.995 42.9333 281.459 43.056 282.003 43.056C282.547 43.056 283.011 42.9333 283.395 42.688C283.779 42.4427 284.072 42.0907 284.275 41.632C284.488 41.1733 284.595 40.6293 284.595 40C284.595 39.36 284.488 38.816 284.275 38.368C284.072 37.9093 283.779 37.5573 283.395 37.312C283.011 37.0667 282.547 36.944 282.003 36.944ZM288.285 44V36H289.405L289.517 37.792L289.309 37.616C289.48 37.1893 289.709 36.848 289.997 36.592C290.285 36.3253 290.616 36.1333 290.989 36.016C291.373 35.8987 291.768 35.84 292.173 35.84C292.749 35.84 293.272 35.952 293.741 36.176C294.21 36.3893 294.584 36.72 294.861 37.168C295.149 37.616 295.293 38.1867 295.293 38.88V44H294.013V39.328C294.013 38.4427 293.821 37.8293 293.437 37.488C293.064 37.136 292.6 36.96 292.045 36.96C291.661 36.96 291.277 37.0507 290.893 37.232C290.509 37.4133 290.189 37.7067 289.933 38.112C289.688 38.5173 289.565 39.0613 289.565 39.744V44H288.285ZM305.164 42.8H311.212V44H303.884V33.44H305.164V42.8ZM317.879 38.832C317.879 38.2347 317.719 37.776 317.399 37.456C317.079 37.1253 316.625 36.96 316.039 36.96C315.484 36.96 315.015 37.0827 314.631 37.328C314.247 37.5627 313.964 37.9467 313.783 38.48L312.743 37.84C312.956 37.2427 313.351 36.7627 313.927 36.4C314.503 36.0267 315.217 35.84 316.071 35.84C316.647 35.84 317.169 35.9413 317.639 36.144C318.108 36.336 318.476 36.6347 318.743 37.04C319.02 37.4347 319.159 37.9467 319.159 38.576V42.448C319.159 42.832 319.361 43.024 319.767 43.024C319.969 43.024 320.167 42.9973 320.359 42.944L320.295 43.952C320.081 44.0587 319.804 44.112 319.463 44.112C319.153 44.112 318.876 44.0533 318.631 43.936C318.385 43.8187 318.193 43.6427 318.055 43.408C317.916 43.1627 317.847 42.8587 317.847 42.496V42.336L318.167 42.384C318.039 42.8 317.82 43.1413 317.511 43.408C317.201 43.664 316.855 43.856 316.471 43.984C316.087 44.1013 315.708 44.16 315.335 44.16C314.865 44.16 314.428 44.08 314.023 43.92C313.617 43.76 313.292 43.52 313.047 43.2C312.812 42.8693 312.695 42.464 312.695 41.984C312.695 41.3867 312.892 40.896 313.287 40.512C313.692 40.1173 314.252 39.8507 314.967 39.712L318.135 39.088V40.144L315.559 40.672C315.036 40.7787 314.647 40.928 314.391 41.12C314.135 41.312 314.007 41.5787 314.007 41.92C314.007 42.2507 314.135 42.5227 314.391 42.736C314.657 42.9387 315.031 43.04 315.511 43.04C315.82 43.04 316.113 43.0027 316.391 42.928C316.679 42.8427 316.935 42.72 317.159 42.56C317.383 42.3893 317.559 42.1813 317.687 41.936C317.815 41.68 317.879 41.3813 317.879 41.04V38.832ZM326.189 44.16C325.741 44.16 325.325 44.08 324.941 43.92C324.557 43.76 324.227 43.536 323.949 43.248C323.672 42.96 323.464 42.6347 323.325 42.272L323.501 42.048L323.389 44H322.269V32.32H323.549V37.808L323.389 37.568C323.603 37.0667 323.96 36.656 324.461 36.336C324.973 36.0053 325.555 35.84 326.205 35.84C326.867 35.84 327.475 36.0053 328.029 36.336C328.584 36.6667 329.027 37.1413 329.357 37.76C329.688 38.3787 329.853 39.1253 329.853 40C329.853 40.864 329.683 41.6107 329.341 42.24C329.011 42.8587 328.568 43.3333 328.013 43.664C327.459 43.9947 326.851 44.16 326.189 44.16ZM326.061 43.04C326.851 43.04 327.464 42.7627 327.901 42.208C328.349 41.6533 328.573 40.9173 328.573 40C328.573 39.0827 328.355 38.3467 327.917 37.792C327.48 37.2373 326.867 36.96 326.077 36.96C325.576 36.96 325.133 37.088 324.749 37.344C324.376 37.6 324.083 37.9573 323.869 38.416C323.656 38.8747 323.549 39.4133 323.549 40.032C323.549 40.64 323.651 41.1733 323.853 41.632C324.067 42.08 324.36 42.4267 324.733 42.672C325.117 42.9173 325.56 43.04 326.061 43.04ZM335.645 44.16C334.887 44.16 334.21 43.9947 333.613 43.664C333.026 43.3333 332.567 42.8587 332.237 42.24C331.906 41.6107 331.741 40.864 331.741 40C331.741 39.136 331.906 38.3947 332.237 37.776C332.567 37.1467 333.021 36.6667 333.597 36.336C334.173 36.0053 334.829 35.84 335.565 35.84C336.311 35.84 336.946 36 337.469 36.32C338.002 36.64 338.407 37.0773 338.685 37.632C338.962 38.176 339.101 38.7893 339.101 39.472C339.101 39.6533 339.095 39.8187 339.085 39.968C339.074 40.1173 339.058 40.2507 339.036 40.368H332.573V39.232H338.477L337.821 39.36C337.821 38.592 337.607 38 337.181 37.584C336.765 37.168 336.215 36.96 335.533 36.96C335.01 36.96 334.557 37.0827 334.173 37.328C333.799 37.5627 333.506 37.9093 333.293 38.368C333.09 38.816 332.989 39.36 332.989 40C332.989 40.6293 333.095 41.1733 333.309 41.632C333.522 42.0907 333.821 42.4427 334.205 42.688C334.599 42.9227 335.069 43.04 335.613 43.04C336.199 43.04 336.674 42.928 337.037 42.704C337.41 42.48 337.709 42.176 337.933 41.792L338.941 42.384C338.738 42.7467 338.477 43.0613 338.157 43.328C337.847 43.5947 337.479 43.8027 337.053 43.952C336.637 44.0907 336.167 44.16 335.645 44.16ZM342.751 32.32V41.968C342.751 42.3733 342.826 42.656 342.975 42.816C343.124 42.9653 343.364 43.04 343.695 43.04C343.908 43.04 344.084 43.024 344.223 42.992C344.362 42.96 344.548 42.9013 344.783 42.816L344.575 43.936C344.404 44.0107 344.218 44.064 344.015 44.096C343.812 44.1387 343.604 44.16 343.391 44.16C342.74 44.16 342.255 43.984 341.935 43.632C341.626 43.28 341.471 42.7413 341.471 42.016V32.32H342.751Z" fill="#7F7ED0"/>
<rect x="221" y="20.5" width="148" height="37" rx="18.5" stroke="#7F7ED0"/>
<rect x="0.5" y="0.5" width="401.5" height="79" rx="4.5" stroke="#9747FF" stroke-dasharray="10 5"/>
</svg>
